<svg width="30" height="30" viewBox="0 0 30 30" fill="none" xmlns="http://www.w3.org/2000/svg">
<mask id="mask0_7163_10858" style="mask-type:luminance" maskUnits="userSpaceOnUse" x="0" y="0" width="30" height="30">
<path d="M0 0H30V30H0V0Z" fill="white"/>
</mask>
<g mask="url(#mask0_7163_10858)">
<mask id="mask1_7163_10858" style="mask-type:luminance" maskUnits="userSpaceOnUse" x="-1" y="-1" width="32" height="32">
<path fill-rule="evenodd" clip-rule="evenodd" d="M17.6212 -0.0372255C19.278 -0.0372255 20.7803 0.641037 21.8735 1.72937C22.9667 2.82256 23.6401 4.32387 23.6401 5.98065H23.6343V6.3606H24.0142C25.671 6.3606 27.1781 7.03983 28.2655 8.12719C29.3597 9.22038 30.0321 10.7227 30.0321 12.3794C30.0321 14.0255 29.3597 15.5784 28.18 16.7124C27.0975 17.754 25.6253 18.3983 24.0142 18.3983H18.3977V24.0139C18.3977 25.6707 17.7194 27.173 16.6311 28.2661C16.597 28.3002 16.5621 28.3351 16.5222 28.3692C16.873 28.4556 17.2413 28.5081 17.6154 28.5081C18.8524 28.5081 19.9748 28.0018 20.7861 27.1846C21.6034 26.3674 22.1096 25.2451 22.1096 24.0139H22.1155V22.1093H24.0142C25.2512 22.1093 26.3726 21.603 27.184 20.7858C27.8924 20.0784 28.3695 19.1349 28.4793 18.0873C29.0487 17.6326 29.5375 17.0806 29.9116 16.4471C29.9864 16.8212 30.0263 17.2186 30.0263 17.6102C30.0263 19.267 29.348 20.7683 28.2606 21.8615C27.1665 22.9547 25.6652 23.6281 24.0084 23.6281H23.6284V24.0022H23.6343C23.6343 25.66 22.955 27.1613 21.8677 28.2545C20.7745 29.3477 19.2722 30.0211 17.6154 30.0211C16.6777 30.0211 15.7857 29.8024 14.9976 29.4167C14.226 29.0426 13.5478 28.5081 12.9949 27.8522C12.1203 26.8047 11.5966 25.4637 11.5966 24.0022V18.3866H5.98098C4.32419 18.3866 2.8219 17.7074 1.72872 16.62C1.69471 16.586 1.65972 16.5511 1.62571 16.5112C1.53923 16.862 1.48676 17.2303 1.48676 17.6044H1.48093C1.48093 18.8356 1.98817 19.9628 2.80441 20.7742C3.62163 21.5914 4.74397 22.0977 5.97515 22.0977H7.87972V24.0022C7.87972 25.2392 8.38599 26.3616 9.20321 27.173C9.91062 27.8804 10.8542 28.3585 11.9017 28.4673C12.3565 29.0367 12.9084 29.5265 13.542 29.9006C12.989 30.0094 12.4254 30.0444 11.8618 29.9919C10.4111 29.8656 9.09923 29.2213 8.12168 28.2487C7.02849 27.1555 6.35509 25.6542 6.35509 23.9964V23.6223H5.97515C4.31836 23.6223 2.81607 22.944 1.72289 21.8557C0.635528 20.7683 -0.0437061 19.2612 -0.0437061 17.6044H-0.0495364C-0.0495364 15.8203 0.802665 14.0596 2.17182 12.943C3.20768 12.0976 4.53117 11.5856 5.96932 11.5856H11.5849V5.96997C11.5849 4.31221 12.2641 2.81089 13.3515 1.71771C13.3865 1.68272 13.4263 1.64288 13.4613 1.6079C13.1105 1.51559 12.7422 1.46992 12.3623 1.46992V1.47575C11.1253 1.47575 10.0029 1.98201 9.19155 2.7934C8.37433 3.61062 7.86806 4.73199 7.86806 5.96414V7.86871H5.96349C4.72648 7.86871 3.60414 8.37498 2.79372 9.18637C2.07951 9.89961 1.60822 10.8432 1.49259 11.8848C0.923158 12.3396 0.434382 12.8915 0.0602683 13.5183C-0.0378757 13.047 -0.0835468 12.5631 -0.0378757 11.948C0.0660987 10.4516 0.716181 9.10571 1.71123 8.10387C2.80441 7.01068 4.3067 6.33825 5.96349 6.33825H6.34343V5.9583C6.34343 4.30055 7.02266 2.7934 8.11002 1.70605C9.20321 0.612857 10.7045 -0.0605469 12.3623 -0.0605469V-0.0547165C14.0249 -0.0547165 15.6875 0.68768 16.804 1.91302C17.7826 2.98289 18.3811 4.41035 18.3811 5.96414V11.5797H23.9967C25.6535 11.5797 27.1558 12.259 28.249 13.3463C28.283 13.3803 28.318 13.4153 28.352 13.4551C28.4385 13.1044 28.49 12.7361 28.49 12.362C28.49 11.125 27.9837 10.0026 27.1723 9.1922C26.3561 8.37498 25.2337 7.87454 24.0026 7.87454H22.1038V5.96997H22.098C22.098 4.73199 21.5917 3.61062 20.7745 2.79923C20.0671 2.09182 19.1226 1.61373 18.0702 1.5049C17.6154 0.934497 17.0635 0.445721 16.4299 0.0716074L16.4017 0.0774378C16.7865 -0.00321528 17.184 -0.0430559 17.5921 -0.0430559L17.6212 -0.0372255ZM28.49 28.4906C27.7369 29.2447 26.5164 29.2447 25.7633 28.4906C25.0093 27.7366 25.0093 26.517 25.7633 25.763C26.5164 25.0089 27.7369 25.0089 28.49 25.763C29.244 26.517 29.244 27.7366 28.49 28.4906ZM28.49 1.51073C29.244 2.26381 29.244 3.4843 28.49 4.23738C27.7369 4.99144 26.5164 4.99144 25.7633 4.23738C25.0093 3.4843 25.0093 2.26381 25.7633 1.51073C26.5164 0.756672 27.7369 0.756672 28.49 1.51073ZM1.51008 1.51073C2.26414 0.756672 3.48365 0.756672 4.23771 1.51073C4.99176 2.26381 4.99176 3.4843 4.23771 4.23738C3.48365 4.99144 2.26414 4.99144 1.51008 4.23738C0.756022 3.4843 0.756022 2.26381 1.51008 1.51073ZM1.51008 28.4906C0.756022 27.7366 0.756022 26.517 1.51008 25.763C2.26414 25.0089 3.48365 25.0089 4.23771 25.763C4.99176 26.517 4.99176 27.7366 4.23771 28.4906C3.48365 29.2447 2.26414 29.2447 1.51008 28.4906ZM15.0034 27.6617C15.1987 27.5179 15.3834 27.3624 15.5554 27.1904C16.3726 26.3732 16.8788 25.2509 16.8788 24.0197V16.8795H24.0191C25.257 16.8795 26.3784 16.3723 27.1898 15.556C27.3628 15.383 27.5182 15.1984 27.6621 15.0031C27.5182 14.8078 27.3628 14.6232 27.1898 14.4512C26.3726 13.6339 25.2512 13.1277 24.0191 13.1277H16.8788V5.98648C16.8788 4.74948 16.3726 3.62811 15.5554 2.81672C15.3834 2.64376 15.1987 2.48828 15.0034 2.34447C14.8071 2.48828 14.6235 2.64376 14.4505 2.81672C13.6333 3.63394 13.127 4.75531 13.127 5.98648V13.1277H5.98681C4.7498 13.1277 3.62746 13.6339 2.81607 14.4512C2.64408 14.6232 2.4886 14.8078 2.34479 15.0031C2.4886 15.1984 2.64408 15.383 2.81607 15.556C3.63329 16.3723 4.75563 16.8795 5.98681 16.8795H13.127V24.0197C13.127 25.2567 13.6333 26.3791 14.4505 27.1904C14.6235 27.3624 14.8071 27.5179 15.0034 27.6617Z" fill="white"/>
</mask>
<g mask="url(#mask1_7163_10858)">
<path d="M30 30V0H0V30H30Z" fill="#05CC7E"/>
</g>
</g>
</svg>
